<svg id="book.svg" xmlns="http://www.w3.org/2000/svg" width="115" height="125" viewBox="0 0 115 125">
  <defs>
    <style>
      .cls-1 {
        fill: #fff;
      }

      .cls-1, .cls-2 {
        fill-rule: evenodd;
      }

      .cls-2 {
        fill: #404041;
      }
    </style>
  </defs>
  <path id="Polygon_1_copy_4" data-name="Polygon 1 copy 4" class="cls-1" d="M1120.84,3428.99c11.53,5.9,19.84,10.55,30.62,16.53,10.43,5.2,12.55,11.57,12.52,24.68,0,11.89.04,21.08,0,34.46,0.05,13.37-2.61,15.57-13.21,22.5-9.91,5.76-18.67,10.8-29.93,17.13-9.88,6.41-18.22,6.14-27.24,0-11.01-5.98-18.96-10.55-29.92-17.13-10.6-6.47-14.46-11.41-14.65-24.09,0.03-12.09-.09-20.75,0-32.87-0.03-12.42,4.22-19.03,14.65-24.08,11.19-7.04,18.91-11.48,29.92-17.13C1105.72,3422.35,1108.79,3422.3,1120.84,3428.99Z" transform="translate(-1049 -3424)"/>
  <path id="_7" data-name="7" class="cls-2" d="M1124.25,3503.44s-6.4,1.78-13.07,3.56h-2.41c-6.62-1.78-13.02-3.56-13.02-3.56-2.51-.82-4.75-2.13-4.75-4.76v-24.93a4.748,4.748,0,0,1,4.75-4.75s7.07,1.97,13.02,3.56c0.79,0,1.58.03,2.36,0,6.25-1.67,13.12-3.56,13.12-3.56a4.748,4.748,0,0,1,4.75,4.75v24.93C1129,3501.31,1126.69,3502.8,1124.25,3503.44Zm-28.5-32.07a2.386,2.386,0,0,0-2.38,2.38v24.93c0,1.32,1.03,2.01,2.38,2.38,0,0,6.58,1.82,13.06,3.56v-29.69Zm30.87,2.38a2.377,2.377,0,0,0-2.37-2.38l-13.06,3.56v29.67c6.6-1.74,13.06-3.54,13.06-3.54,1.27-.41,2.37-1.06,2.37-2.38v-24.93Z" transform="translate(-1049 -3424)"/>
</svg>
