<svg id="sheck.svg" xmlns="http://www.w3.org/2000/svg" width="115" height="125" viewBox="0 0 115 125">
  <defs>
    <style>
      .cls-1 {
        fill: #fff;
      }

      .cls-1, .cls-2 {
        fill-rule: evenodd;
      }

      .cls-2 {
        fill: #404041;
      }
    </style>
  </defs>
  <path id="Polygon_1_copy_4" data-name="Polygon 1 copy 4" class="cls-1" d="M1412.84,3428.99c11.53,5.9,19.84,10.55,30.62,16.53,10.43,5.2,12.55,11.57,12.52,24.68,0,11.89.04,21.08,0,34.46,0.05,13.37-2.61,15.57-13.21,22.5-9.91,5.76-18.67,10.8-29.93,17.13-9.88,6.41-18.22,6.14-27.24,0-11.01-5.98-18.96-10.55-29.92-17.13-10.6-6.47-14.46-11.41-14.65-24.09,0.03-12.09-.09-20.75,0-32.87-0.03-12.42,4.22-19.03,14.65-24.08,11.19-7.04,18.91-11.48,29.92-17.13C1397.72,3422.35,1400.79,3422.3,1412.84,3428.99Z" transform="translate(-1341 -3424)"/>
  <path id="_1" data-name="1" class="cls-2" d="M1400,3505a19,19,0,1,1,19-19A19,19,0,0,1,1400,3505Zm0-35.63a16.625,16.625,0,1,0,16.63,16.63A16.636,16.636,0,0,0,1400,3469.37Zm0.55,24.27a1.058,1.058,0,0,1-.3.48,1.186,1.186,0,0,1-1.68-.05l-5.42-5.01a1.185,1.185,0,1,1,1.73-1.62l4.25,3.91,7.59-13.15a1.19,1.19,0,0,1,2.06,1.19Z" transform="translate(-1341 -3424)"/>
</svg>
