<svg id="doc.svg" xmlns="http://www.w3.org/2000/svg" width="115" height="125" viewBox="0 0 115 125">
  <defs>
    <style>
      .cls-1 {
        fill: #fff;
      }

      .cls-1, .cls-2 {
        fill-rule: evenodd;
      }

      .cls-2 {
        fill: #404041;
      }
    </style>
  </defs>
  <path id="Polygon_1_copy_4" data-name="Polygon 1 copy 4" class="cls-1" d="M534.838,3428.99c11.531,5.9,19.841,10.55,30.618,16.53,10.43,5.2,12.551,11.57,12.527,24.68,0,11.89.036,21.08,0,34.46,0.044,13.37-2.616,15.57-13.216,22.5-9.908,5.76-18.666,10.8-29.929,17.13-9.881,6.41-18.219,6.14-27.234,0-11.011-5.98-18.962-10.55-29.929-17.13-10.6-6.47-14.456-11.41-14.642-24.09,0.03-12.09-.1-20.75,0-32.87-0.037-12.42,4.212-19.03,14.642-24.08,11.2-7.04,18.918-11.48,29.929-17.13C519.717,3422.35,522.793,3422.3,534.838,3428.99Z" transform="translate(-463 -3424)"/>
  <path id="_1" data-name="1" class="cls-2" d="M533.077,3509H510.923a4.963,4.963,0,0,1-4.923-5v-30a4.963,4.963,0,0,1,4.923-5h14.769c1.648-.03,2.3.03,2.462,0.03V3469L538,3479v25A4.963,4.963,0,0,1,533.077,3509Zm-4.923-37.5v5a2.481,2.481,0,0,0,2.461,2.5h4.924Zm7.385,10h-4.924a4.963,4.963,0,0,1-4.923-5s-0.057-2.01-.035-5H510.923a2.481,2.481,0,0,0-2.461,2.5v30a2.481,2.481,0,0,0,2.461,2.5h22.154a2.482,2.482,0,0,0,2.462-2.5v-22.5Zm-6.154,17.5h-14.77a1.25,1.25,0,0,1,0-2.5h14.77A1.25,1.25,0,0,1,529.385,3499Zm0-7.5h-14.77a1.25,1.25,0,0,1,0-2.5h14.77A1.25,1.25,0,0,1,529.385,3491.5Z" transform="translate(-463 -3424)"/>
</svg>
