<?xml version="1.0" encoding="utf-8"?>
<!-- Generator: Adobe Illustrator 16.0.0, SVG Export Plug-In . SVG Version: 6.00 Build 0)  -->
<!DOCTYPE svg PUBLIC "-//W3C//DTD SVG 1.1//EN" "http://www.w3.org/Graphics/SVG/1.1/DTD/svg11.dtd">
<svg version="1.1" id="Слой_1" xmlns="http://www.w3.org/2000/svg" xmlns:xlink="http://www.w3.org/1999/xlink" x="0px" y="0px"
	 width="70px" height="26px" viewBox="0 0 70 26" enable-background="new 0 0 70 26" xml:space="preserve">
<path fill-rule="evenodd" clip-rule="evenodd" fill="#808080" d="M9.1631,1.4419C4.6426,6.8276,0.3081,13.5068,0.2642,18.499
	c-0.0166,1.8789,0.5742,3.5195,1.9917,4.7607c2.041,1.7881,4.2891,2.4199,6.5264,2.4229c3.269,0.0049,6.5156-1.333,9.0571-2.3652
	c4.2813-1.7373,51.604-22.585,51.604-22.585c0.457-0.2319,0.3711-0.5215-0.1992-0.3765
	c-0.2305,0.0581-51.5181,14.1597-51.5181,14.1597c-0.9902,0.2813-2.0015,0.4268-2.9858,0.4326
	c-3.9414,0.0234-7.4487-2.1953-7.4204-6.873C7.3311,6.2446,7.8833,4.0381,9.1631,1.4419"/>
</svg>
