<svg id="user.svg" xmlns="http://www.w3.org/2000/svg" width="115" height="125" viewBox="0 0 115 125">
  <defs>
    <style>
      .cls-1 {
        fill: #fff;
      }

      .cls-1, .cls-2 {
        fill-rule: evenodd;
      }

      .cls-2 {
        fill: #404041;
      }
    </style>
  </defs>
  <path id="Polygon_1_copy_4" data-name="Polygon 1 copy 4" class="cls-1" d="M826.838,3428.99c11.531,5.9,19.841,10.55,30.618,16.53,10.43,5.2,12.551,11.57,12.527,24.68,0,11.89.036,21.08,0,34.46,0.044,13.37-2.616,15.57-13.216,22.5-9.908,5.76-18.666,10.8-29.929,17.13-9.881,6.41-18.219,6.14-27.234,0-11.011-5.98-18.962-10.55-29.929-17.13-10.595-6.47-14.456-11.41-14.642-24.09,0.03-12.09-.1-20.75,0-32.87-0.037-12.42,4.212-19.03,14.642-24.08,11.2-7.04,18.918-11.48,29.929-17.13C811.717,3422.35,814.793,3422.3,826.838,3428.99Z" transform="translate(-755 -3424)"/>
  <path id="_7" data-name="7" class="cls-2" d="M834.75,3493h-7.5a1.25,1.25,0,0,1,0-2.5h7.5A1.25,1.25,0,0,1,834.75,3493Zm0-7.5h-10a1.25,1.25,0,0,1,0-2.5h10A1.25,1.25,0,0,1,834.75,3485.5Zm0-7.5h-10a1.25,1.25,0,0,1,0-2.5h10A1.25,1.25,0,0,1,834.75,3478Zm-11.25,17.5v5a7.5,7.5,0,0,1-7.5,7.5H803.5a7.5,7.5,0,0,1-7.5-7.5v-5a7.465,7.465,0,0,1,5.062-7.06,13.326,13.326,0,0,1-2.562-7.94c0-6.91,5.037-12.5,11.25-12.5s11.25,5.59,11.25,12.5a13.326,13.326,0,0,1-2.562,7.94A7.465,7.465,0,0,1,823.5,3495.5Zm-5-15c0-5.53-3.918-10-8.75-10s-8.75,4.47-8.75,10,3.917,10,8.75,10S818.5,3486.02,818.5,3480.5Zm2.5,15.62a5.753,5.753,0,0,0-4.72-5.46,10.281,10.281,0,0,1-13.06,0,5.753,5.753,0,0,0-4.72,5.46v3.75a5.9,5.9,0,0,0,6.136,5.63h10.228a5.9,5.9,0,0,0,6.136-5.63v-3.75Zm6.25,1.88h7.5a1.25,1.25,0,0,1,0,2.5h-7.5A1.25,1.25,0,0,1,827.25,3498Z" transform="translate(-755 -3424)"/>
</svg>
