<svg 
 xmlns="http://www.w3.org/2000/svg"
 xmlns:xlink="http://www.w3.org/1999/xlink"
 width="1.125in" height="0.097in">
<path fill-rule="evenodd"  opacity="0.2" fill="rgb(25, 25, 25)"
 d="M70.541,6.998 L65.534,1.837 L60.527,6.998 L55.520,1.837 L50.513,6.998 L45.507,1.837 L40.500,6.998 L35.493,1.837 L30.486,6.998 L25.480,1.837 L20.473,6.998 L15.466,1.837 L10.459,6.998 L5.452,1.837 L0.891,6.539 L0.000,5.620 L5.452,-0.002 L10.459,5.160 L15.466,-0.002 L20.473,5.160 L25.480,-0.002 L30.486,5.160 L35.493,-0.002 L40.500,5.160 L45.507,-0.002 L50.513,5.160 L55.520,-0.002 L60.527,5.160 L65.534,-0.002 L70.541,5.160 L75.547,-0.002 L81.000,5.620 L80.108,6.539 L75.547,1.837 L70.541,6.998 Z"/>
</svg>